<svg width="120" height="120" viewBox="0 0 120 120" fill="none" xmlns="http://www.w3.org/2000/svg">
<g clip-path="url(#clip0_2143_232)">
<path d="M16 92.7821C16 98.9781 21.0803 104 27.3468 104H92.6528C98.9204 104 104 98.9774 104 92.7821V28.2182C104 22.0219 98.9197 17 92.6532 17H27.3472C21.0796 17 16 22.0226 16 28.2179V92.7818V92.7821Z" fill="#563D7C"/>
<path d="M52.4919 55.4832V43.1629H63.4613C64.5063 43.1629 65.5135 43.2489 66.4836 43.4212C67.4536 43.5931 68.312 43.9003 69.0583 44.3431C69.8042 44.786 70.4013 45.4007 70.8492 46.1875C71.2968 46.9746 71.5209 47.9829 71.5209 49.2121C71.5209 51.4255 70.8492 53.0241 69.5058 54.0076C68.1628 54.9915 66.4464 55.4832 64.3568 55.4832H52.4919ZM40.7759 34.1621V86.8379H66.5956C68.9837 86.8379 71.3095 86.5429 73.5731 85.9526C75.8367 85.3623 77.8514 84.4525 79.6176 83.223C81.3834 81.9934 82.789 80.407 83.8337 78.4645C84.8787 76.5216 85.4008 74.2222 85.4008 71.5663C85.4008 68.2709 84.5923 65.4553 82.9757 63.1192C81.3587 60.7828 78.9084 59.1474 75.6249 58.2129C78.0129 57.0819 79.8166 55.6307 81.0355 53.8601C82.2541 52.0895 82.8636 49.8765 82.8636 47.2203C82.8636 44.7612 82.4532 42.6956 81.6323 41.0232C80.8114 39.3512 79.6547 38.0108 78.1621 37.0025C76.6699 35.9942 74.879 35.2686 72.7893 34.8262C70.7 34.3833 68.3866 34.1621 65.8493 34.1621H40.7759ZM52.4919 77.8371V63.3771H65.2523C67.7895 63.3771 69.8293 63.9548 71.3717 65.111C72.9138 66.2668 73.6851 68.1971 73.6851 70.9023C73.6851 72.2797 73.4486 73.4107 72.976 74.296C72.5033 75.1813 71.8691 75.8823 71.073 76.3986C70.2772 76.9151 69.3566 77.2839 68.312 77.5054C67.267 77.7263 66.1728 77.8371 65.0285 77.8371H52.4919Z" fill="white"/>
</g>
<defs>
<clipPath id="clip0_2143_232">
<rect width="88" height="87" fill="white" transform="translate(16 17)"/>
</clipPath>
</defs>
</svg>
