<svg width="120" height="120" viewBox="0 0 120 120" fill="none" xmlns="http://www.w3.org/2000/svg">
<g clip-path="url(#clip0_2167_259)">
<path d="M17.1346 27.4555C16.9271 21.4957 21.5705 16 27.8469 16H92.161C98.4375 16 103.081 21.4957 102.873 27.4555C102.674 33.1804 102.933 40.5964 104.799 46.6432C106.672 52.7086 109.829 56.5425 115 57.0352V62.6211C109.829 63.1137 106.672 66.9476 104.799 73.0131C102.933 79.0599 102.674 86.4758 102.873 92.201C103.081 98.1605 98.4375 103.656 92.161 103.656H27.8469C21.5705 103.656 16.9271 98.1605 17.1348 92.201C17.334 86.4758 17.0751 79.0599 15.2085 73.0131C13.3364 66.9476 10.1713 63.1137 5 62.6211V57.0352C10.1711 56.5425 13.3364 52.7086 15.2085 46.6432C17.0751 40.5964 17.334 33.1804 17.1346 27.4555Z" fill="url(#paint0_linear_2167_259)"/>
<g filter="url(#filter0_d_2167_259)">
<path d="M62.3854 83.1294C72.5469 83.1294 78.6702 78.154 78.6702 69.9477C78.6702 63.7445 74.3011 59.2536 67.8137 58.5427V58.2842C72.58 57.5088 76.3202 53.0826 76.3202 48.1395C76.3202 41.0963 70.7596 36.5083 62.2862 36.5083H43.2209V83.1294H62.3854ZM50.6352 42.4208H60.4989C65.861 42.4208 68.9059 44.8116 68.9059 49.1409C68.9059 53.7611 65.3645 56.3457 58.9432 56.3457H50.6352V42.4208ZM50.6352 77.2171V61.8706H60.4325C67.4495 61.8706 71.0905 64.4552 71.0905 69.4954C71.0905 74.5354 67.549 77.2171 60.8628 77.2171H50.6352Z" fill="url(#paint1_linear_2167_259)"/>
<path d="M62.3854 83.1294C72.5469 83.1294 78.6702 78.154 78.6702 69.9477C78.6702 63.7445 74.3011 59.2536 67.8137 58.5427V58.2842C72.58 57.5088 76.3202 53.0826 76.3202 48.1395C76.3202 41.0963 70.7596 36.5083 62.2862 36.5083H43.2209V83.1294H62.3854ZM50.6352 42.4208H60.4989C65.861 42.4208 68.9059 44.8116 68.9059 49.1409C68.9059 53.7611 65.3645 56.3457 58.9432 56.3457H50.6352V42.4208ZM50.6352 77.2171V61.8706H60.4325C67.4495 61.8706 71.0905 64.4552 71.0905 69.4954C71.0905 74.5354 67.549 77.2171 60.8628 77.2171H50.6352Z" stroke="white"/>
</g>
</g>
<defs>
<filter id="filter0_d_2167_259" x="26.7209" y="24.0083" width="68.4492" height="79.6211" filterUnits="userSpaceOnUse" color-interpolation-filters="sRGB">
<feFlood flood-opacity="0" result="BackgroundImageFix"/>
<feColorMatrix in="SourceAlpha" type="matrix" values="0 0 0 0 0 0 0 0 0 0 0 0 0 0 0 0 0 0 127 0" result="hardAlpha"/>
<feOffset dy="4"/>
<feGaussianBlur stdDeviation="8"/>
<feColorMatrix type="matrix" values="0 0 0 0 0 0 0 0 0 0 0 0 0 0 0 0 0 0 0.15 0"/>
<feBlend mode="normal" in2="BackgroundImageFix" result="effect1_dropShadow_2167_259"/>
<feBlend mode="normal" in="SourceGraphic" in2="effect1_dropShadow_2167_259" result="shape"/>
</filter>
<linearGradient id="paint0_linear_2167_259" x1="21.3451" y1="18.3199" x2="117.466" y2="94.621" gradientUnits="userSpaceOnUse">
<stop stop-color="#9013FE"/>
<stop offset="1" stop-color="#6610F2"/>
</linearGradient>
<linearGradient id="paint1_linear_2167_259" x1="46.574" y1="39.5769" x2="68.0597" y2="75.9139" gradientUnits="userSpaceOnUse">
<stop stop-color="white"/>
<stop offset="1" stop-color="#F1E5FC"/>
</linearGradient>
<clipPath id="clip0_2167_259">
<rect width="110" height="87.6562" fill="white" transform="translate(5 16)"/>
</clipPath>
</defs>
</svg>
