<svg width="120" height="120" viewBox="0 0 120 120" fill="none" xmlns="http://www.w3.org/2000/svg">
<path d="M22.1325 102.004L13.71 7.5H106.29L97.8562 101.989L59.9437 112.5L22.1325 102.004Z" fill="#1572B6"/>
<path d="M60 104.467L90.6375 95.9735L97.845 15.2285H60V104.467Z" fill="#33A9DC"/>
<path d="M60 49.4663H75.3375L76.395 37.5976H60V26.0063H89.0625L88.785 29.1151L85.9387 61.0576H60V49.4663V49.4663Z" fill="white"/>
<path d="M60.0711 79.5673L60.0186 79.5823L47.1112 76.0948L46.2862 66.8511H34.6499L36.2737 85.0498L60.0149 91.6423L60.0711 91.6273V79.5673V79.5673Z" fill="#EBEBEB"/>
<path d="M74.3513 60.5664L72.9563 76.0877L60.03 79.5752V91.6352L83.79 85.0502L83.9663 83.0927L85.98 60.5664H74.3513V60.5664Z" fill="white"/>
<path d="M60.0411 26.0063V37.5976H32.0436L31.8111 34.9913L31.2824 29.1151L31.0049 26.0063H60.0411V26.0063ZM59.9999 49.4663V61.0576H47.2536L47.0211 58.4513L46.4961 52.5751L46.2186 49.4663H59.9999V49.4663Z" fill="#EBEBEB"/>
</svg>
