<svg width="30" height="30" viewBox="0 0 30 30" fill="none" xmlns="http://www.w3.org/2000/svg">
<path fill-rule="evenodd" clip-rule="evenodd" d="M15 30C23.2843 30 30 23.2843 30 15C30 6.71573 23.2843 0 15 0C6.71573 0 0 6.71573 0 15C0 23.2843 6.71573 30 15 30ZM8.80009 10C8.58792 10 8.38444 10.0843 8.23442 10.2343C8.19726 10.2715 8.16413 10.3119 8.13532 10.3549L15.1 14.9981L22.0647 10.3549C22.0359 10.3119 22.0028 10.2715 21.9656 10.2343C21.8156 10.0843 21.6121 10 21.4 10H8.80009ZM6.00011 10.8137C5.99994 10.8026 5.99997 10.7914 6.00017 10.7803C6.00533 10.0448 6.29974 9.34056 6.8202 8.8201C7.3453 8.295 8.05749 8 8.80009 8H21.4C22.1426 8 22.8547 8.295 23.3798 8.8201C23.9003 9.34056 24.1947 10.0448 24.1999 10.7803C24.2 10.7869 24.2 10.7935 24.2 10.8C24.2 10.8046 24.2 10.8091 24.1999 10.8137V19.7999C24.1999 20.5425 23.9049 21.2547 23.3798 21.7798C22.8547 22.3049 22.1426 22.5999 21.4 22.5999H8.80009C8.05749 22.5999 7.3453 22.3049 6.8202 21.7798C6.2951 21.2547 6.00011 20.5425 6.00011 19.7999V10.8137ZM22.1999 19.7999V12.6685L15.6547 17.032C15.3188 17.2559 14.8812 17.2559 14.5453 17.032L8.00011 12.6685V19.7999C8.00011 20.0121 8.08439 20.2155 8.23442 20.3656C8.38444 20.5156 8.58792 20.5999 8.80009 20.5999H21.4C21.6121 20.5999 21.8156 20.5156 21.9656 20.3656C22.1157 20.2155 22.1999 20.0121 22.1999 19.7999Z" fill="#94A3B8"/>
</svg>
