<svg width="120" height="120" viewBox="0 0 120 120" fill="none" xmlns="http://www.w3.org/2000/svg">
<g clip-path="url(#clip0_2167_256)">
<path d="M42.0061 105C50.2861 105 57.0061 98.28 57.0061 90V75H42.0061C33.7261 75 27.0061 81.72 27.0061 90C27.0061 98.28 33.7261 105 42.0061 105Z" fill="#0ACF83"/>
<path d="M27.0061 60C27.0061 51.72 33.7261 45 42.0061 45H57.0061V75H42.0061C33.7261 75 27.0061 68.28 27.0061 60Z" fill="#A259FF"/>
<path d="M27.0061 30C27.0061 21.72 33.7261 15 42.0061 15H57.0061V45H42.0061C33.7261 45 27.0061 38.28 27.0061 30Z" fill="#F24E1E"/>
<path d="M57.0061 15H72.0061C80.2861 15 87.0061 21.72 87.0061 30C87.0061 38.28 80.2861 45 72.0061 45H57.0061V15Z" fill="#FF7262"/>
<path d="M87.0061 60C87.0061 68.28 80.2861 75 72.0061 75C63.7261 75 57.0061 68.28 57.0061 60C57.0061 51.72 63.7261 45 72.0061 45C80.2861 45 87.0061 51.72 87.0061 60Z" fill="#1ABCFE"/>
</g>
<defs>
<clipPath id="clip0_2167_256">
<rect width="60.012" height="90" fill="white" transform="translate(27 15)"/>
</clipPath>
</defs>
</svg>
