<svg width="120" height="120" viewBox="0 0 120 120" fill="none" xmlns="http://www.w3.org/2000/svg">
<path fill-rule="evenodd" clip-rule="evenodd" d="M60 16C35.69 16 16 35.69 16 60C16 79.47 28.595 95.915 46.085 101.745C48.285 102.13 49.11 100.81 49.11 99.655C49.11 98.61 49.055 95.145 49.055 91.46C38 93.495 35.14 88.765 34.26 86.29C33.765 85.025 31.62 81.12 29.75 80.075C28.21 79.25 26.01 77.215 29.695 77.16C33.16 77.105 35.635 80.35 36.46 81.67C40.42 88.325 46.745 86.455 49.275 85.3C49.66 82.44 50.815 80.515 52.08 79.415C42.29 78.315 32.06 74.52 32.06 57.69C32.06 52.905 33.765 48.945 36.57 45.865C36.13 44.765 34.59 40.255 37.01 34.205C37.01 34.205 40.695 33.05 49.11 38.715C52.63 37.725 56.37 37.23 60.11 37.23C63.85 37.23 67.59 37.725 71.11 38.715C79.525 32.995 83.21 34.205 83.21 34.205C85.63 40.255 84.09 44.765 83.65 45.865C86.455 48.945 88.16 52.85 88.16 57.69C88.16 74.575 77.875 78.315 68.085 79.415C69.68 80.79 71.055 83.43 71.055 87.555C71.055 93.44 71 98.17 71 99.655C71 100.81 71.825 102.185 74.025 101.745C82.7597 98.796 90.3497 93.1822 95.7268 85.6937C101.104 78.2052 103.997 69.219 104 60C104 35.69 84.31 16 60 16Z" fill="#FFFEFE"/>
</svg>
