<svg width="120" height="120" viewBox="0 0 120 120" fill="none" xmlns="http://www.w3.org/2000/svg">
<g clip-path="url(#clip0_2143_236)">
<path d="M111.02 55.8221L65.1758 9.98062C62.5372 7.34044 58.2552 7.34044 55.6134 9.98062L46.0937 19.5003L58.1699 31.5766C60.9762 30.6283 64.1943 31.2645 66.4313 33.5014C68.6789 35.7528 69.3106 38.9984 68.3393 41.8137L79.9775 53.4523C82.7932 52.4822 86.0421 53.1098 88.291 55.3624C91.434 58.5042 91.434 63.5962 88.291 66.7401C85.1471 69.8844 80.055 69.8844 76.9095 66.7401C74.5454 64.3735 73.9613 60.9015 75.1582 57.989L64.3046 47.1354L64.3034 75.6975C65.0902 76.0865 65.8088 76.6004 66.4313 77.2192C69.5743 80.361 69.5743 85.4535 66.4313 88.5998C63.2874 91.7424 58.1929 91.7424 55.0535 88.5998C51.9105 85.4535 51.9105 80.3614 55.0535 77.2196C55.8067 76.466 56.7019 75.8692 57.6871 75.4637V46.6355C56.7004 46.2327 55.8048 45.6355 55.0535 44.8796C52.6722 42.5015 52.0996 39.0074 53.3198 36.0834L41.4154 24.1778L9.98105 55.6101C7.33965 58.2527 7.33965 62.5352 9.98105 65.1758L55.8259 111.018C58.4652 113.659 62.7464 113.659 65.3891 111.018L111.019 65.3886C113.66 62.7472 113.66 58.4623 111.019 55.8221" fill="#DE4C36"/>
</g>
<defs>
<clipPath id="clip0_2143_236">
<rect width="105" height="105" fill="white" transform="translate(8 8)"/>
</clipPath>
</defs>
</svg>
