<svg width="120" height="120" viewBox="0 0 120 120" fill="none" xmlns="http://www.w3.org/2000/svg">
<path d="M22.1325 102.004L13.7063 7.5H106.294L97.8563 101.989L59.9438 112.5L22.1325 102.004Z" fill="#E44F26"/>
<path d="M60 104.467L90.6375 95.9735L97.845 15.2285H60V104.467Z" fill="#F1662A"/>
<path d="M60 50.2764H44.6625L43.605 38.4077H60V26.8164H30.9375L31.215 29.9289L34.0613 61.8677H60V50.2764ZM60 80.3777L59.9475 80.3927L47.04 76.9089L46.215 67.6652H34.5787L36.2025 85.8602L59.9475 92.4527L60 92.4377V80.3777Z" fill="#EBEBEB"/>
<path d="M59.9587 50.2764V61.8677H74.2312L72.8887 76.9014L59.9587 80.3889V92.4489L83.7225 85.8602L83.895 83.9027L86.6175 53.3889L86.9025 50.2764H59.9587ZM59.9587 26.8164V38.4077H87.9562L88.1887 35.8052L88.7175 29.9289L88.995 26.8164H59.9587Z" fill="white"/>
</svg>
