<svg width="223" height="43" viewBox="0 0 223 43" fill="none" xmlns="http://www.w3.org/2000/svg">
<path d="M15.662 15.5143H18.6631L22.8003 27.5529H19.9517L19.0192 24.8569H15.272L14.3564 27.5529H11.5078L15.662 15.5143ZM18.5614 22.9409L17.154 18.312L15.7128 22.9409H18.5614Z" fill="url(#paint0_linear_2118_231)"/>
<path d="M27.377 27.5529V15.5143H30.1577V25.1112H35.9905V27.5529H27.377Z" fill="url(#paint1_linear_2118_231)"/>
<path d="M49.1474 25.1112V27.5529H40.6865V15.5143H48.9948V17.9559H43.4673V20.2958H48.2148V22.5509H43.4673V25.1112H49.1474Z" fill="url(#paint2_linear_2118_231)"/>
<path d="M61.451 19.0411C61.4171 18.9846 61.2984 18.8998 61.0949 18.7868C60.8914 18.6624 60.6371 18.5324 60.3319 18.3968C60.0267 18.2611 59.6932 18.1425 59.3315 18.0407C58.9698 17.939 58.6081 17.8881 58.2464 17.8881C57.7716 17.8881 57.4042 17.9729 57.1442 18.1425C56.8843 18.3007 56.7543 18.5494 56.7543 18.8885C56.7543 19.1598 56.8503 19.3746 57.0425 19.5328C57.246 19.6911 57.5342 19.8324 57.9073 19.9567C58.2803 20.0698 58.7381 20.2054 59.2807 20.3637C60.0493 20.5671 60.7162 20.8158 61.2814 21.1097C61.8466 21.3923 62.2762 21.7597 62.5701 22.2118C62.8753 22.664 63.0279 23.2631 63.0279 24.0091C63.0279 24.6873 62.9035 25.2638 62.6548 25.7386C62.4062 26.2021 62.067 26.5807 61.6375 26.8746C61.2193 27.1572 60.7388 27.3663 60.1963 27.502C59.6537 27.6263 59.0941 27.6885 58.5177 27.6885C57.9299 27.6885 57.3251 27.632 56.7034 27.5189C56.093 27.3946 55.5052 27.225 54.94 27.0103C54.3748 26.7842 53.8548 26.5129 53.3801 26.1964L54.6009 23.7717C54.6461 23.8283 54.7931 23.9356 55.0417 24.0939C55.2904 24.2408 55.5956 24.3991 55.9574 24.5687C56.3304 24.7269 56.743 24.8682 57.1951 24.9925C57.6473 25.1169 58.1051 25.1791 58.5685 25.1791C59.0659 25.1791 59.4333 25.0999 59.6706 24.9417C59.9193 24.7834 60.0437 24.563 60.0437 24.2804C60.0437 23.9752 59.9137 23.7378 59.6537 23.5683C59.405 23.3987 59.0602 23.2461 58.6194 23.1105C58.1898 22.9748 57.6925 22.8222 57.1273 22.6527C56.3925 22.4266 55.7821 22.1723 55.2961 21.8897C54.8213 21.6071 54.4653 21.2623 54.2279 20.8554C54.0018 20.4484 53.8888 19.9398 53.8888 19.3294C53.8888 18.4816 54.0866 17.7694 54.4822 17.1929C54.8891 16.6051 55.4317 16.1643 56.11 15.8704C56.7882 15.5652 57.5286 15.4126 58.3311 15.4126C58.8963 15.4126 59.4389 15.4804 59.9589 15.6161C60.4902 15.7517 60.9819 15.9213 61.434 16.1247C61.8975 16.3282 62.3101 16.5317 62.6718 16.7351L61.451 19.0411Z" fill="url(#paint3_linear_2118_231)"/>
<path d="M75.2738 19.0411C75.2399 18.9846 75.1212 18.8998 74.9178 18.7868C74.7143 18.6624 74.4599 18.5324 74.1547 18.3968C73.8495 18.2611 73.5161 18.1425 73.1544 18.0407C72.7926 17.939 72.4309 17.8881 72.0692 17.8881C71.5944 17.8881 71.2271 17.9729 70.9671 18.1425C70.7071 18.3007 70.5771 18.5494 70.5771 18.8885C70.5771 19.1598 70.6732 19.3746 70.8654 19.5328C71.0688 19.6911 71.3571 19.8324 71.7301 19.9567C72.1031 20.0698 72.5609 20.2054 73.1035 20.3637C73.8722 20.5671 74.5391 20.8158 75.1043 21.1097C75.6695 21.3923 76.099 21.7597 76.3929 22.2118C76.6981 22.664 76.8507 23.2631 76.8507 24.0091C76.8507 24.6873 76.7264 25.2638 76.4777 25.7386C76.229 26.2021 75.8899 26.5807 75.4603 26.8746C75.0421 27.1572 74.5617 27.3663 74.0191 27.502C73.4765 27.6263 72.917 27.6885 72.3405 27.6885C71.7527 27.6885 71.1479 27.632 70.5262 27.5189C69.9158 27.3946 69.328 27.225 68.7628 27.0103C68.1977 26.7842 67.6777 26.5129 67.2029 26.1964L68.4237 23.7717C68.4689 23.8283 68.6159 23.9356 68.8646 24.0939C69.1133 24.2408 69.4185 24.3991 69.7802 24.5687C70.1532 24.7269 70.5658 24.8682 71.0179 24.9925C71.4701 25.1169 71.9279 25.1791 72.3914 25.1791C72.8887 25.1791 73.2561 25.0999 73.4935 24.9417C73.7422 24.7834 73.8665 24.563 73.8665 24.2804C73.8665 23.9752 73.7365 23.7378 73.4765 23.5683C73.2278 23.3987 72.8831 23.2461 72.4422 23.1105C72.0127 22.9748 71.5153 22.8222 70.9501 22.6527C70.2154 22.4266 69.605 22.1723 69.1189 21.8897C68.6442 21.6071 68.2881 21.2623 68.0507 20.8554C67.8246 20.4484 67.7116 19.9398 67.7116 19.3294C67.7116 18.4816 67.9094 17.7694 68.305 17.1929C68.712 16.6051 69.2546 16.1643 69.9328 15.8704C70.611 15.5652 71.3514 15.4126 72.154 15.4126C72.7192 15.4126 73.2617 15.4804 73.7817 15.6161C74.313 15.7517 74.8047 15.9213 75.2569 16.1247C75.7203 16.3282 76.1329 16.5317 76.4946 16.7351L75.2738 19.0411Z" fill="url(#paint4_linear_2118_231)"/>
<path d="M81.8736 27.5529V15.5143H84.6543V27.5529H81.8736Z" fill="url(#paint5_linear_2118_231)"/>
<path d="M95.6213 27.6546C94.717 27.6546 93.8975 27.485 93.1627 27.1459C92.4393 26.7955 91.8119 26.332 91.2806 25.7556C90.7607 25.1678 90.3594 24.5121 90.0768 23.7887C89.7942 23.0539 89.6529 22.2966 89.6529 21.5166C89.6529 20.7141 89.7998 19.9511 90.0937 19.2276C90.3989 18.5042 90.8172 17.8599 91.3485 17.2947C91.891 16.7182 92.5297 16.266 93.2644 15.9382C93.9992 15.6104 94.8018 15.4465 95.6722 15.4465C96.5652 15.4465 97.3734 15.6217 98.0968 15.9721C98.8316 16.3112 99.4589 16.7747 99.9789 17.3625C100.51 17.9503 100.917 18.6116 101.2 19.3463C101.482 20.0698 101.624 20.8102 101.624 21.5675C101.624 22.3701 101.477 23.1331 101.183 23.8565C100.889 24.58 100.471 25.2299 99.928 25.8064C99.3854 26.3716 98.7468 26.8238 98.012 27.1629C97.2886 27.4907 96.4917 27.6546 95.6213 27.6546ZM92.4845 21.5505C92.4845 22.014 92.5523 22.4662 92.688 22.907C92.8236 23.3365 93.0214 23.7209 93.2814 24.06C93.5527 24.3991 93.8862 24.6704 94.2818 24.8739C94.6774 25.0773 95.1296 25.1791 95.6382 25.1791C96.1695 25.1791 96.633 25.0773 97.0286 24.8739C97.4242 24.6591 97.752 24.3765 98.012 24.0261C98.272 23.6757 98.4642 23.2857 98.5885 22.8561C98.7242 22.4153 98.792 21.9688 98.792 21.5166C98.792 21.0532 98.7242 20.6067 98.5885 20.1771C98.4529 19.7476 98.2494 19.3633 97.9781 19.0242C97.7068 18.6737 97.3734 18.4024 96.9777 18.2103C96.5821 18.0181 96.1356 17.922 95.6382 17.922C95.107 17.922 94.6435 18.0238 94.2479 18.2272C93.8636 18.4307 93.5357 18.7076 93.2644 19.0581C93.0045 19.3972 92.8066 19.7872 92.671 20.228C92.5467 20.6575 92.4845 21.0984 92.4845 21.5505Z" fill="url(#paint6_linear_2118_231)"/>
<path d="M113.275 21.4319C113.275 20.6971 113.411 19.9793 113.682 19.2785C113.953 18.5664 114.349 17.922 114.869 17.3455C115.389 16.7691 116.022 16.3112 116.768 15.9721C117.514 15.6217 118.362 15.4465 119.311 15.4465C120.441 15.4465 121.419 15.6895 122.244 16.1756C123.081 16.6617 123.703 17.2947 124.11 18.0746L121.973 19.5667C121.792 19.1372 121.549 18.8037 121.244 18.5664C120.95 18.329 120.622 18.1651 120.261 18.0746C119.91 17.9729 119.571 17.922 119.243 17.922C118.712 17.922 118.249 18.0294 117.853 18.2442C117.457 18.4477 117.129 18.7246 116.87 19.075C116.61 19.4254 116.417 19.8154 116.293 20.245C116.169 20.6745 116.107 21.104 116.107 21.5336C116.107 22.0083 116.18 22.4662 116.327 22.907C116.474 23.3478 116.683 23.7378 116.954 24.0769C117.237 24.4161 117.576 24.6873 117.972 24.8908C118.367 25.083 118.802 25.1791 119.277 25.1791C119.616 25.1791 119.961 25.1225 120.312 25.0095C120.662 24.8965 120.984 24.7213 121.278 24.4839C121.583 24.2352 121.815 23.913 121.973 23.5174L124.245 24.8569C124.008 25.4447 123.618 25.9477 123.075 26.366C122.533 26.7842 121.917 27.1064 121.227 27.3324C120.549 27.5472 119.876 27.6546 119.209 27.6546C118.339 27.6546 117.536 27.4794 116.802 27.129C116.078 26.7672 115.451 26.2925 114.92 25.7047C114.4 25.1056 113.993 24.4387 113.699 23.7039C113.416 22.9579 113.275 22.2005 113.275 21.4319Z" fill="url(#paint7_linear_2118_231)"/>
<path d="M131.888 15.5143H134.889L139.026 27.5529H136.178L135.245 24.8569H131.498L130.582 27.5529H127.734L131.888 15.5143ZM134.787 22.9409L133.38 18.312L131.939 22.9409H134.787Z" fill="url(#paint8_linear_2118_231)"/>
<path d="M143.603 27.5529V15.5143H149.029C149.594 15.5143 150.114 15.633 150.588 15.8704C151.075 16.0965 151.493 16.4073 151.843 16.803C152.194 17.1873 152.465 17.6225 152.657 18.1085C152.861 18.5946 152.962 19.0863 152.962 19.5837C152.962 20.0811 152.883 20.5558 152.725 21.008C152.567 21.4488 152.341 21.8501 152.047 22.2118C151.753 22.5622 151.402 22.8505 150.995 23.0766L153.641 27.5529H150.572L148.266 23.67H146.383V27.5529H143.603ZM146.383 21.2453H148.927C149.153 21.2453 149.351 21.1775 149.52 21.0419C149.701 20.8949 149.848 20.6971 149.961 20.4484C150.074 20.1997 150.131 19.9115 150.131 19.5837C150.131 19.2559 150.063 18.9733 149.927 18.7359C149.803 18.4872 149.645 18.2951 149.452 18.1594C149.26 18.0238 149.057 17.9559 148.842 17.9559H146.383V21.2453Z" fill="url(#paint9_linear_2118_231)"/>
<path d="M161.134 20.6689V27.5529H158.353V15.5143H160.557L166.136 22.6018V15.5143H168.916V27.5529H166.644L161.134 20.6689Z" fill="url(#paint10_linear_2118_231)"/>
<path d="M174.61 27.5529V15.5143H177.391V27.5529H174.61Z" fill="url(#paint11_linear_2118_231)"/>
<path d="M185.865 20.6689V27.5529H183.084V15.5143H185.289L190.867 22.6018V15.5143H193.648V27.5529H191.376L185.865 20.6689Z" fill="url(#paint12_linear_2118_231)"/>
<path d="M204.614 27.6546C203.71 27.6546 202.891 27.485 202.156 27.1459C201.432 26.7955 200.805 26.332 200.274 25.7556C199.754 25.1678 199.353 24.5121 199.07 23.7887C198.787 23.0539 198.646 22.2966 198.646 21.5166C198.646 20.7141 198.793 19.9511 199.087 19.2276C199.392 18.5042 199.81 17.8599 200.342 17.2947C200.884 16.7182 201.523 16.266 202.258 15.9382C202.992 15.6104 203.795 15.4465 204.665 15.4465C205.558 15.4465 206.367 15.6217 207.09 15.9721C207.825 16.3112 208.452 16.7747 208.972 17.3625C209.503 17.9503 209.91 18.6116 210.193 19.3463C210.475 20.0698 210.617 20.8102 210.617 21.5675C210.617 22.3701 210.47 23.1331 210.176 23.8565C209.882 24.58 209.464 25.2299 208.921 25.8064C208.379 26.3716 207.74 26.8238 207.005 27.1629C206.282 27.4907 205.485 27.6546 204.614 27.6546ZM201.478 21.5505C201.478 22.014 201.545 22.4662 201.681 22.907C201.817 23.3365 202.015 23.7209 202.275 24.06C202.546 24.3991 202.879 24.6704 203.275 24.8739C203.671 25.0773 204.123 25.1791 204.631 25.1791C205.163 25.1791 205.626 25.0773 206.022 24.8739C206.417 24.6591 206.745 24.3765 207.005 24.0261C207.265 23.6757 207.457 23.2857 207.582 22.8561C207.717 22.4153 207.785 21.9688 207.785 21.5166C207.785 21.0532 207.717 20.6067 207.582 20.1771C207.446 19.7476 207.243 19.3633 206.971 19.0242C206.7 18.6737 206.366 18.4024 205.971 18.2103C205.575 18.0181 205.129 17.922 204.631 17.922C204.1 17.922 203.637 18.0238 203.241 18.2272C202.857 18.4307 202.529 18.7076 202.258 19.0581C201.998 19.3972 201.8 19.7872 201.664 20.228C201.54 20.6575 201.478 21.0984 201.478 21.5505Z" fill="url(#paint13_linear_2118_231)"/>
<path d="M1.4 1.4H221.143V40.9892H1.4V1.4Z" stroke="url(#paint14_linear_2118_231)" stroke-width="2.8"/>
<defs>
<linearGradient id="paint0_linear_2118_231" x1="-12.5475" y1="29.2577" x2="-11.1118" y2="1.69675" gradientUnits="userSpaceOnUse">
<stop stop-color="#4E65FF"/>
<stop offset="1" stop-color="#92EFFD"/>
</linearGradient>
<linearGradient id="paint1_linear_2118_231" x1="-12.5475" y1="29.2577" x2="-11.1118" y2="1.69675" gradientUnits="userSpaceOnUse">
<stop stop-color="#4E65FF"/>
<stop offset="1" stop-color="#92EFFD"/>
</linearGradient>
<linearGradient id="paint2_linear_2118_231" x1="-12.5475" y1="29.2577" x2="-11.1118" y2="1.69675" gradientUnits="userSpaceOnUse">
<stop stop-color="#4E65FF"/>
<stop offset="1" stop-color="#92EFFD"/>
</linearGradient>
<linearGradient id="paint3_linear_2118_231" x1="-12.5475" y1="29.2577" x2="-11.1118" y2="1.69675" gradientUnits="userSpaceOnUse">
<stop stop-color="#4E65FF"/>
<stop offset="1" stop-color="#92EFFD"/>
</linearGradient>
<linearGradient id="paint4_linear_2118_231" x1="-12.5475" y1="29.2577" x2="-11.1118" y2="1.69675" gradientUnits="userSpaceOnUse">
<stop stop-color="#4E65FF"/>
<stop offset="1" stop-color="#92EFFD"/>
</linearGradient>
<linearGradient id="paint5_linear_2118_231" x1="-12.5475" y1="29.2577" x2="-11.1118" y2="1.69675" gradientUnits="userSpaceOnUse">
<stop stop-color="#4E65FF"/>
<stop offset="1" stop-color="#92EFFD"/>
</linearGradient>
<linearGradient id="paint6_linear_2118_231" x1="-12.5475" y1="29.2577" x2="-11.1118" y2="1.69675" gradientUnits="userSpaceOnUse">
<stop stop-color="#4E65FF"/>
<stop offset="1" stop-color="#92EFFD"/>
</linearGradient>
<linearGradient id="paint7_linear_2118_231" x1="-12.5475" y1="29.2577" x2="-11.1118" y2="1.69675" gradientUnits="userSpaceOnUse">
<stop stop-color="#4E65FF"/>
<stop offset="1" stop-color="#92EFFD"/>
</linearGradient>
<linearGradient id="paint8_linear_2118_231" x1="-12.5475" y1="29.2577" x2="-11.1118" y2="1.69675" gradientUnits="userSpaceOnUse">
<stop stop-color="#4E65FF"/>
<stop offset="1" stop-color="#92EFFD"/>
</linearGradient>
<linearGradient id="paint9_linear_2118_231" x1="-12.5475" y1="29.2577" x2="-11.1118" y2="1.69675" gradientUnits="userSpaceOnUse">
<stop stop-color="#4E65FF"/>
<stop offset="1" stop-color="#92EFFD"/>
</linearGradient>
<linearGradient id="paint10_linear_2118_231" x1="-12.5475" y1="29.2577" x2="-11.1118" y2="1.69675" gradientUnits="userSpaceOnUse">
<stop stop-color="#4E65FF"/>
<stop offset="1" stop-color="#92EFFD"/>
</linearGradient>
<linearGradient id="paint11_linear_2118_231" x1="-12.5475" y1="29.2577" x2="-11.1118" y2="1.69675" gradientUnits="userSpaceOnUse">
<stop stop-color="#4E65FF"/>
<stop offset="1" stop-color="#92EFFD"/>
</linearGradient>
<linearGradient id="paint12_linear_2118_231" x1="-12.5475" y1="29.2577" x2="-11.1118" y2="1.69675" gradientUnits="userSpaceOnUse">
<stop stop-color="#4E65FF"/>
<stop offset="1" stop-color="#92EFFD"/>
</linearGradient>
<linearGradient id="paint13_linear_2118_231" x1="-12.5475" y1="29.2577" x2="-11.1118" y2="1.69675" gradientUnits="userSpaceOnUse">
<stop stop-color="#4E65FF"/>
<stop offset="1" stop-color="#92EFFD"/>
</linearGradient>
<linearGradient id="paint14_linear_2118_231" x1="-26.8866" y1="47.8078" x2="-11.9162" y2="-45.2103" gradientUnits="userSpaceOnUse">
<stop stop-color="#4E65FF"/>
<stop offset="1" stop-color="#92EFFD"/>
</linearGradient>
</defs>
</svg>
