<svg width="120" height="120" viewBox="0 0 120 120" fill="none" xmlns="http://www.w3.org/2000/svg">
<g clip-path="url(#clip0_2149_310)">
<path fill-rule="evenodd" clip-rule="evenodd" d="M111.73 57.0613C111.622 57.0828 111.513 57.3207 111.513 57.4503C111.492 58.3156 111.47 60.6083 111.47 62.1655C111.47 62.2088 111.535 62.2953 111.6 62.2953C111.924 62.3169 112.703 62.3385 113.373 62.3385C114.303 62.3385 114.844 62.2088 115.147 62.0792C115.926 61.6897 116.293 60.8462 116.293 59.916C116.293 57.8183 114.823 57.0179 112.638 57.0179C112.487 56.9963 112.054 56.9963 111.73 57.0613ZM117.31 66.7292C117.31 64.588 115.731 63.3983 112.876 63.3983C112.746 63.3983 111.838 63.3767 111.622 63.4199C111.557 63.4417 111.47 63.485 111.47 63.5499C111.47 65.0853 111.449 67.5296 111.513 68.4812C111.557 68.8921 111.86 69.4761 112.227 69.6491C112.616 69.8654 113.503 69.9085 114.109 69.9085C115.818 69.9085 117.31 68.957 117.31 66.7292ZM107.318 55.8718C107.534 55.8718 108.183 55.9365 109.848 55.9365C111.427 55.9365 112.681 55.8934 114.217 55.8934C116.099 55.8934 118.694 56.5637 118.694 59.3755C118.694 60.7597 117.721 61.8629 116.445 62.4036C116.38 62.4252 116.38 62.4683 116.445 62.4899C118.261 62.9443 119.862 64.0688 119.862 66.1883C119.862 68.2649 118.564 69.5842 116.683 70.4061C115.536 70.9035 114.109 71.0764 112.66 71.0764C111.557 71.0764 108.594 70.9468 106.95 70.9902C106.777 70.925 107.101 70.1464 107.253 70.0168C107.642 69.995 107.945 69.9735 108.356 69.8436C108.94 69.6924 109.004 69.5192 109.091 68.6326C109.134 67.8756 109.134 65.1934 109.134 63.2903C109.134 60.6732 109.156 58.8997 109.134 58.0346C109.113 57.3643 108.875 57.1478 108.399 57.0179C108.031 56.9532 107.426 56.8665 106.928 56.8018C106.82 56.6935 107.188 55.9581 107.318 55.8718ZM94.8377 69.3247C95.3571 69.7353 96.3735 69.9083 97.282 69.9083C98.4499 69.9083 99.6178 69.6924 100.743 68.6755C101.889 67.6377 102.689 66.0371 102.689 63.485C102.689 61.0407 101.759 59.0509 99.8557 57.8832C98.7742 57.2124 97.39 56.9317 95.7895 56.9317C95.3137 56.9317 94.8595 56.9532 94.5785 57.0828C94.5133 57.1262 94.3621 57.3207 94.3621 57.4288C94.3188 57.8614 94.3188 61.1921 94.3188 63.1388C94.3188 65.1503 94.3188 67.9621 94.3621 68.2864C94.3621 68.611 94.5133 69.1084 94.8379 69.3247H94.8377ZM89.928 55.8716C90.3391 55.8716 91.9178 55.9365 92.6749 55.9365C94.0378 55.9365 95.0109 55.8718 97.5846 55.8718C99.7474 55.8718 101.564 56.4556 102.862 57.5586C104.441 58.9213 105.263 60.8031 105.263 63.0955C105.263 66.3615 103.77 68.2433 102.278 69.3247C100.786 70.4277 98.8392 71.0764 96.0707 71.0764C94.6 71.0764 92.0695 71.0333 89.9714 71.0115H89.9498C89.8418 70.817 90.1228 70.0599 90.2957 70.0384C90.8582 69.9735 91.0096 69.9517 91.2909 69.8438C91.7449 69.6706 91.8316 69.4328 91.8965 68.6326C91.9612 67.1401 91.9396 65.345 91.9396 63.3118C91.9396 61.8629 91.9612 59.0293 91.9178 58.1209C91.8532 57.3641 91.5288 57.1693 90.8798 57.0395C90.5554 56.9748 90.1228 56.8881 89.5174 56.8234C89.4307 56.6717 89.82 56.0012 89.928 55.8716Z" fill="#8E714E"/>
<path fill-rule="evenodd" clip-rule="evenodd" d="M63.7578 70.1681C63.2171 70.1032 62.8278 70.0169 62.3521 69.8006C62.2871 69.7572 62.1788 69.5411 62.1788 69.4544C62.1357 68.6974 62.1357 66.5346 62.1357 65.0857C62.1357 63.9175 61.9412 62.9011 61.4436 62.1874C60.8596 61.3652 60.0163 60.8896 58.9346 60.8896C57.9831 60.8896 56.7069 61.5384 55.6471 62.4468C55.6255 62.4684 55.4525 62.62 55.4741 62.3819C55.4741 62.144 55.5174 61.6682 55.539 61.3436C55.5608 61.0408 55.3876 60.8896 55.3876 60.8896C54.6955 61.2356 52.749 61.6898 52.0351 61.7545C51.5162 61.863 51.3864 62.3604 51.9273 62.5333H51.9489C52.5324 62.7063 52.922 62.9011 53.2246 63.0958C53.4409 63.2688 53.4193 63.5067 53.4193 63.7014C53.4409 65.3233 53.4409 67.8107 53.3762 69.1734C53.3546 69.7141 53.2032 69.9086 52.8137 69.9951L52.8571 69.9736C52.5542 70.0385 52.3164 70.1032 51.9486 70.1465C51.8188 70.2764 51.8188 70.9685 51.9486 71.1199C52.1865 71.1199 53.4409 71.055 54.4794 71.055C55.9067 71.055 56.6422 71.1199 57.0097 71.1199C57.1611 70.9469 57.2045 70.2979 57.118 70.1465C56.7069 70.125 56.4041 70.0818 56.1231 69.9951C55.7338 69.9084 55.6255 69.7141 55.6037 69.2599C55.5608 68.1133 55.5608 65.6911 55.5608 64.0474C55.5608 63.5932 55.6904 63.3768 55.82 63.247C56.3176 62.8146 57.118 62.5118 57.8317 62.5118C58.5238 62.5118 58.9778 62.7281 59.3239 63.0093C59.7997 63.3984 59.9511 63.9609 60.016 64.3718C60.1241 65.3018 60.081 67.1402 60.081 68.7407C60.081 69.6058 60.016 69.8221 59.6919 69.9302C59.5403 69.9951 59.151 70.0818 58.6967 70.1247C58.5453 70.2764 58.5887 70.9469 58.6967 71.0983C59.3239 71.0983 60.0594 71.0334 61.1408 71.0334C62.4817 71.0334 63.347 71.0983 63.6931 71.0983C63.801 70.9685 63.8443 70.3413 63.7578 70.1681ZM69.7489 61.9064C68.6028 61.9064 67.8889 62.793 67.8889 64.177C67.8889 65.583 68.5161 67.2051 70.2896 67.2051C70.5924 67.2051 71.1549 67.0753 71.4142 66.7725C71.8253 66.3834 72.1065 65.6046 72.1065 64.7826C72.1065 62.9875 71.2196 61.9064 69.7489 61.9064ZM69.5975 71.4658C69.1651 71.4658 68.8621 71.5957 68.6675 71.7039C67.7591 72.2875 67.3482 72.85 67.3482 73.5208C67.3482 74.1478 67.5861 74.6451 68.1053 75.0778C68.7324 75.6185 69.5975 75.8782 70.7005 75.8782C72.9067 75.8782 73.88 74.6885 73.88 73.5208C73.88 72.6986 73.4689 72.1579 72.6256 71.8554C72.02 71.5957 70.9171 71.4658 69.5975 71.4658ZM69.7489 77.0894C68.4296 77.0894 67.4778 76.8082 66.6561 76.181C65.8557 75.5754 65.5098 74.6669 65.5098 74.0397C65.5098 73.8668 65.5531 73.3907 65.9424 72.9583C66.1801 72.6986 66.6995 72.2013 67.9323 71.3578C67.9754 71.3362 67.997 71.3146 67.997 71.2711C67.997 71.2279 67.9536 71.1846 67.9105 71.1632C66.894 70.7739 66.5912 70.1465 66.5045 69.8006V69.7572C66.4832 69.6274 66.4398 69.4978 66.6346 69.3679C66.786 69.2599 67.0023 69.13 67.2399 68.9789C67.6077 68.7623 67.997 68.5244 68.2349 68.3296C68.2782 68.2865 68.2782 68.2434 68.2782 68.2C68.2782 68.1567 68.2349 68.1133 68.1915 68.092C66.6779 67.5944 65.9209 66.4696 65.9209 64.7826C65.9209 63.6796 66.4182 62.6847 67.3049 62.0575C67.9105 61.5818 69.4246 60.9977 70.4195 60.9977H70.4844C71.5009 61.0193 72.0631 61.2356 72.8633 61.5168C73.296 61.6682 73.7071 61.7329 74.2696 61.7329C75.1128 61.7329 75.4806 61.4735 75.7831 61.1709C75.8049 61.214 75.8483 61.3223 75.8699 61.6033C75.8914 61.8846 75.8049 62.2954 75.5886 62.5982C75.4156 62.8361 75.0263 63.0093 74.6371 63.0093H74.5288C74.1395 62.966 73.9663 62.9226 73.9663 62.9226L73.88 62.966C73.8585 63.0093 73.88 63.0525 73.9016 63.1174L73.9234 63.1607C73.9665 63.3553 74.053 63.9391 74.053 64.0907C74.053 65.8643 73.3393 66.6426 72.5823 67.2267C71.8468 67.7674 71.0035 68.1133 70.0517 68.2C70.0302 68.2 69.9439 68.2 69.7489 68.2216C69.6409 68.2216 69.4895 68.2434 69.4677 68.2434H69.4461C69.2732 68.2865 68.8407 68.5029 68.8407 68.8704C68.8407 69.1947 69.0353 69.5843 69.9653 69.6492C70.1598 69.6707 70.3543 69.6707 70.5709 69.6925C71.8037 69.7788 73.3393 69.8871 74.053 70.125C75.0479 70.4925 75.6751 71.3793 75.6751 72.4392C75.6751 74.04 74.529 75.5322 72.6256 76.462C71.6956 76.8731 70.7654 77.0894 69.7489 77.0894ZM82.0771 62.0144C81.6231 62.0144 81.212 62.1222 80.9092 62.3386C80.0659 62.8577 79.6332 63.896 79.6332 65.4098C79.6332 68.2434 81.0606 70.2332 83.0938 70.2332C83.6994 70.2332 84.1752 70.06 84.586 69.7141C85.2132 69.1947 85.5378 68.1567 85.5378 66.7075C85.5378 63.896 84.1318 62.0142 82.0773 62.0142L82.0771 62.0144ZM82.4666 71.2713C78.7897 71.2713 77.4704 68.5678 77.4704 66.0372C77.4704 64.2637 78.1841 62.9011 79.6114 61.9277C80.6281 61.3005 81.8394 60.9546 82.9208 60.9546C85.7324 60.9546 87.7006 62.966 87.7006 65.8643C87.7006 67.8323 86.922 69.3895 85.4295 70.3413C84.7159 70.8171 83.4831 71.2713 82.4663 71.2713H82.4666ZM43.9246 62.0142C43.4703 62.0142 43.0595 62.1222 42.7564 62.3386C41.9131 62.8577 41.4805 63.896 41.4805 65.4098C41.4805 68.2434 42.9078 70.2332 44.941 70.2332C45.5467 70.2332 46.0224 70.06 46.4335 69.7141C47.0605 69.1947 47.3851 68.1567 47.3851 66.7075C47.3851 63.896 46.0009 62.0142 43.9246 62.0142ZM44.3139 71.2713C40.637 71.2713 39.3177 68.5678 39.3177 66.0372C39.3177 64.2637 40.0313 62.9011 41.4587 61.9277C42.4754 61.3005 43.6867 60.9546 44.7681 60.9546C47.5799 60.9546 49.5479 62.966 49.5479 65.8643C49.5479 67.8323 48.7693 69.3895 47.2768 70.3413C46.5847 70.8171 45.3519 71.2713 44.3139 71.2713ZM19.5924 71.055C19.5491 70.9903 19.5057 70.7955 19.5275 70.5576C19.5275 70.3844 19.5709 70.2764 19.5924 70.2332C20.0467 70.1681 20.2846 70.1032 20.544 70.0385C20.9767 69.9302 21.1496 69.6925 21.1712 69.1518C21.2364 67.8541 21.2363 65.3882 21.2146 63.6796V63.6363C21.2146 63.4418 21.2146 63.2036 20.9767 63.0307C20.6305 62.8146 20.2196 62.62 19.6789 62.4682C19.4844 62.4037 19.3546 62.2954 19.3761 62.1658C19.3761 62.036 19.506 61.8846 19.7872 61.8412C20.5009 61.7763 22.3606 61.3223 23.0961 60.9977C23.1395 61.0408 23.2044 61.1709 23.2044 61.3439L23.1828 61.5815C23.161 61.8196 23.1395 62.1009 23.1395 62.3819C23.1395 62.4684 23.2262 62.5333 23.3124 62.5333C23.3558 62.5333 23.3992 62.5118 23.4423 62.49C24.8265 61.4086 26.0809 61.0193 26.7296 61.0193C27.7897 61.0193 28.6117 61.5168 29.2388 62.5549C29.282 62.62 29.3253 62.6416 29.3903 62.6416C29.4334 62.6416 29.4981 62.62 29.5199 62.5767C30.796 61.6033 32.0722 61.0193 32.9155 61.0193C34.9269 61.0193 36.1166 62.5118 36.1166 65.0423C36.1166 65.756 36.1166 66.686 36.095 67.5297C36.095 68.2865 36.0735 68.9786 36.0735 69.4762C36.0735 69.584 36.2246 69.9302 36.4625 69.9951C36.7653 70.1465 37.1764 70.2114 37.7171 70.2979H37.7387C37.7821 70.4493 37.6956 71.0116 37.6091 71.1199C37.4792 71.1199 37.2845 71.1199 37.0684 71.0983C36.5209 71.0698 35.9727 71.0553 35.4245 71.055C34.0836 71.055 33.3915 71.0765 32.7207 71.1199C32.6778 70.9469 32.656 70.4278 32.7207 70.2979C33.1103 70.2332 33.3048 70.1681 33.5429 70.1034C33.9756 69.9736 34.0836 69.7788 34.1054 69.2165C34.1054 68.8057 34.1917 65.3018 34.0618 64.4582C33.9322 63.5932 33.2832 62.5767 31.8556 62.5767C31.3149 62.5767 30.4717 62.793 29.6497 63.42C29.6066 63.4633 29.563 63.5714 29.563 63.6363V63.6581C29.6497 64.1121 29.6497 64.6314 29.6497 65.4316V66.8374C29.6497 67.8107 29.6279 68.7192 29.6497 69.4111C29.6497 69.8871 29.931 69.9951 30.1688 70.0818C30.2987 70.1032 30.3849 70.125 30.4932 70.1465C30.6878 70.1899 30.8825 70.2332 31.1853 70.2979C31.2287 70.3846 31.2287 70.6657 31.1638 70.9036C31.142 71.0334 31.0986 71.0981 31.0771 71.1199C30.3418 71.0983 29.5848 71.0765 28.4818 71.0765C28.1574 71.0765 27.5949 71.0983 27.1192 71.0983C26.7296 71.0983 26.3621 71.1199 26.146 71.1199C26.1242 71.0765 26.0809 70.9254 26.0809 70.6872C26.0809 70.4927 26.1242 70.3413 26.1676 70.2979C26.2756 70.2764 26.3621 70.2548 26.4704 70.2548C26.7296 70.2114 26.9462 70.1681 27.1623 70.125C27.5303 70.0169 27.6599 69.8221 27.6814 69.3464C27.7464 68.265 27.8113 65.1721 27.6599 64.3933C27.4004 63.1389 26.6867 62.5118 25.5402 62.5118C24.8699 62.5118 24.0261 62.8361 23.3342 63.3555C23.226 63.4418 23.1395 63.6579 23.1395 63.8526V65.1288C23.1395 66.686 23.1395 68.6327 23.161 69.4762C23.1828 69.7354 23.2691 70.0385 23.7667 70.1465C23.8749 70.1681 24.0479 70.2114 24.2642 70.2332L24.6533 70.2979C24.6969 70.4278 24.6751 70.9469 24.5886 71.1199C24.3723 71.1199 24.1128 71.0983 23.8098 71.0983C23.3558 71.0765 22.7717 71.055 22.123 71.055C21.366 71.055 20.8253 71.0765 20.3926 71.0983C20.0898 71.055 19.8519 71.055 19.5924 71.055Z" fill="#442D22"/>
<path fill-rule="evenodd" clip-rule="evenodd" d="M8.21548 76.2462L7.32884 75.9431C7.32884 75.9431 7.43712 71.423 5.81478 71.0986C4.73361 69.844 5.98822 17.8924 9.88119 70.9254C9.88119 70.9254 8.54009 71.5957 8.3022 72.7423C8.04252 73.867 8.21548 76.2462 8.21548 76.2462Z" fill="white"/>
<path fill-rule="evenodd" clip-rule="evenodd" d="M8.21548 76.2462L7.32884 75.9431C7.32884 75.9431 7.43712 71.423 5.81478 71.0986C4.73361 69.844 5.98822 17.8924 9.88119 70.9254C9.88119 70.9254 8.54009 71.5957 8.3022 72.7423C8.04252 73.867 8.21548 76.2462 8.21548 76.2462Z" fill="#A6A385"/>
<path fill-rule="evenodd" clip-rule="evenodd" d="M8.69151 71.8772C8.69151 71.8772 16.4564 66.7727 14.6392 56.1529C12.8875 48.4319 8.75644 45.9014 8.30222 44.928C7.80487 44.2359 7.32886 43.0249 7.32886 43.0249L7.65347 64.5016C7.65347 64.5234 6.98292 71.0768 8.69175 71.8774" fill="white"/>
<path fill-rule="evenodd" clip-rule="evenodd" d="M8.69151 71.8772C8.69151 71.8772 16.4564 66.7727 14.6392 56.1529C12.8875 48.4319 8.75644 45.9014 8.30222 44.928C7.80487 44.2359 7.32886 43.0249 7.32886 43.0249L7.65347 64.5016C7.65347 64.5234 6.98292 71.0768 8.69175 71.8774" fill="#499D4A"/>
<path fill-rule="evenodd" clip-rule="evenodd" d="M6.87493 72.158C6.87493 72.158 -0.41413 67.1834 0.018526 58.4241C0.429385 49.6645 5.57696 45.3605 6.57189 44.5819C7.22087 43.8898 7.24243 43.6301 7.28579 42.938C7.74001 43.9113 7.65353 57.4941 7.71821 59.0944C7.91275 65.2585 7.37228 70.9903 6.87493 72.158Z" fill="white"/>
<path fill-rule="evenodd" clip-rule="evenodd" d="M6.87493 72.158C6.87493 72.158 -0.41413 67.1834 0.018526 58.4241C0.429385 49.6645 5.57696 45.3605 6.57189 44.5819C7.22087 43.8898 7.24243 43.6301 7.28579 42.938C7.74001 43.9113 7.65353 57.4941 7.71821 59.0944C7.91275 65.2585 7.37228 70.9903 6.87493 72.158Z" fill="#58AA50"/>
</g>
<defs>
<clipPath id="clip0_2149_310">
<rect width="120" height="120" fill="white"/>
</clipPath>
</defs>
</svg>
