<svg width="120" height="120" viewBox="0 0 120 120" fill="none" xmlns="http://www.w3.org/2000/svg">
<g clip-path="url(#clip0_2166_228)">
<path d="M28.3149 42.6706H50.948V44.4695H30.3896V58.0087H49.7221V59.8076H30.3896V74.6723H51.1838V76.4712H28.3149V42.6706ZM52.9756 42.6706H55.3804L66.0368 57.5353L76.929 42.6706L91.7441 23.7891L67.4042 59.0975L79.9467 76.4712H77.4476L66.0368 60.6597L54.5788 76.4712H52.1269L64.7637 59.0975L52.9756 42.6706ZM80.8426 44.4695V42.6706H106.635V44.4695H94.7525V76.4712H92.6778V44.4695H80.8426ZM0 42.6706H2.59338L38.3545 96.1837L23.5761 76.4712L2.16901 45.227L2.0747 76.4712H0V42.6706ZM106.426 74.1294C106.002 74.1294 105.684 73.801 105.684 73.3765C105.684 72.9521 106.002 72.6237 106.426 72.6237C106.855 72.6237 107.168 72.9521 107.168 73.3765C107.168 73.801 106.855 74.1294 106.426 74.1294ZM108.465 72.1487H109.575C109.59 72.75 110.029 73.1542 110.675 73.1542C111.396 73.1542 111.805 72.7197 111.805 71.9062V66.7524H112.935V71.9113C112.935 73.3765 112.088 74.2204 110.685 74.2204C109.368 74.2204 108.465 73.4018 108.465 72.1487ZM114.414 72.0831H115.534C115.63 72.7753 116.306 73.2149 117.28 73.2149C118.188 73.2149 118.855 72.745 118.855 72.0982C118.855 71.5424 118.431 71.2089 117.467 70.9816L116.528 70.7542C115.211 70.446 114.611 69.8093 114.611 68.7381C114.611 67.4396 115.67 66.5756 117.26 66.5756C118.738 66.5756 119.818 67.4396 119.884 68.6674H118.784C118.678 67.9954 118.093 67.576 117.245 67.576C116.352 67.576 115.756 68.0055 115.756 68.6624C115.756 69.1828 116.14 69.4809 117.088 69.7032L117.891 69.9003C119.384 70.2489 120 70.8552 120 71.9517C120 73.3462 118.92 74.2204 117.194 74.2204C115.58 74.2204 114.495 73.3867 114.414 72.0831Z" fill="black"/>
</g>
<defs>
<clipPath id="clip0_2166_228">
<rect width="120" height="120" fill="white"/>
</clipPath>
</defs>
</svg>
