<svg width="120" height="120" viewBox="0 0 120 120" fill="none" xmlns="http://www.w3.org/2000/svg">
<g clip-path="url(#clip0_2149_277)">
<path d="M59.3488 96.4812C58.9421 96.4812 58.5624 96.3728 58.2096 96.1829L54.6022 94.0402C54.0595 93.7416 54.3309 93.6332 54.4937 93.579C55.226 93.3349 55.3616 93.2805 56.1211 92.8468C56.2025 92.7923 56.3112 92.8195 56.3924 92.8738L59.1592 94.5283C59.2676 94.5826 59.4033 94.5826 59.4845 94.5283L70.3073 88.2625C70.4158 88.2083 70.4702 88.0996 70.4702 87.9642V75.4598C70.4702 75.3239 70.4158 75.2157 70.3073 75.1613L59.4845 68.9227C59.376 68.8682 59.2404 68.8682 59.1592 68.9227L48.3363 75.1613C48.2279 75.2155 48.1735 75.3511 48.1735 75.4596V87.964C48.1735 88.0726 48.2279 88.2081 48.3363 88.2625L51.293 89.9713C52.8934 90.785 53.8969 89.8357 53.8969 88.8863V76.5445C53.8969 76.3819 54.0326 76.219 54.2224 76.219H55.6057C55.7686 76.219 55.9312 76.3547 55.9312 76.5445V88.8863C55.9312 91.0291 54.7648 92.2769 52.7305 92.2769C52.1067 92.2769 51.6185 92.2769 50.235 91.5987L47.387 89.9713C46.6818 89.5646 46.2478 88.8049 46.2478 87.9912V75.4868C46.2478 74.6731 46.6818 73.9134 47.387 73.5067L58.2096 67.2409C58.8879 66.8611 59.8102 66.8611 60.4882 67.2409L71.3109 73.5067C72.0161 73.9134 72.4503 74.6731 72.4503 75.4868V87.9912C72.4503 88.8049 72.0161 89.5646 71.3109 89.9713L60.4882 96.2371C60.1355 96.4 59.7286 96.4812 59.3488 96.4812ZM62.6852 87.8828C57.9385 87.8828 56.962 85.7128 56.962 83.8684C56.962 83.7055 57.0976 83.5428 57.2875 83.5428H58.698C58.8607 83.5428 58.9963 83.6513 58.9963 83.8141C59.2134 85.2516 59.8372 85.9569 62.7124 85.9569C64.9908 85.9569 65.9676 85.4415 65.9676 84.2209C65.9676 83.5156 65.6961 83.0005 62.1428 82.6477C59.1862 82.3492 57.3417 81.6984 57.3417 79.3386C57.3417 77.1414 59.1864 75.8393 62.2785 75.8393C65.7503 75.8393 67.4593 77.0329 67.6764 79.6366C67.6764 79.7183 67.6492 79.7995 67.595 79.8809C67.5405 79.9351 67.4593 79.9894 67.3779 79.9894H65.9674C65.8317 79.9894 65.6961 79.8809 65.6691 79.7453C65.3436 78.2536 64.5027 77.7652 62.2785 77.7652C59.783 77.7652 59.4845 78.6333 59.4845 79.2841C59.4845 80.0708 59.8372 80.3149 63.2006 80.7488C66.537 81.183 68.1104 81.8068 68.1104 84.1394C68.0831 86.5265 66.1303 87.8828 62.6852 87.8828Z" fill="#539E43"/>
<path d="M25.7685 47.5752C25.7685 47.087 25.4972 46.6256 25.0633 46.3816L13.5624 39.7632C13.3723 39.6546 13.1555 39.6003 12.9386 39.5731H12.8299C12.6131 39.5731 12.396 39.6546 12.2061 39.7632L0.705251 46.3816C0.27107 46.6256 0 47.0868 0 47.5752L0.0272243 65.3689C0.0272243 65.613 0.162877 65.8571 0.379733 65.9657C0.596823 66.1014 0.867893 66.1014 1.05799 65.9657L7.89342 62.0597C8.32736 61.8156 8.59867 61.3545 8.59867 60.8663V52.539C8.59867 52.0508 8.86974 51.5896 9.30392 51.3455L12.2061 49.6637C12.4232 49.5281 12.6673 49.4736 12.9114 49.4736C13.1555 49.4736 13.3995 49.5281 13.5896 49.6637L16.4919 51.3455C16.926 51.5896 17.1971 52.0506 17.1971 52.539V60.8663C17.1971 61.3545 17.4684 61.8156 17.9024 62.0597L24.7378 65.9657C24.9549 66.1014 25.2259 66.1014 25.443 65.9657C25.6601 65.8571 25.7958 65.613 25.7958 65.3689L25.7685 47.5752ZM81.0488 23.0815C80.8319 22.9728 80.5606 22.9728 80.3705 23.0815C80.1536 23.2171 80.018 23.434 80.018 23.6781V41.3094C80.018 41.472 79.9368 41.6347 79.7739 41.7433C79.6113 41.8245 79.4484 41.8245 79.2858 41.7433L76.4105 40.0887C76.1997 39.9687 75.9613 39.9056 75.7188 39.9056C75.4762 39.9056 75.2378 39.9687 75.027 40.0887L63.5261 46.7343C63.0922 46.9784 62.8209 47.4395 62.8209 47.9277V61.1916C62.8209 61.6798 63.0922 62.1412 63.5261 62.3852L75.027 69.0308C75.2378 69.1508 75.4762 69.2139 75.7188 69.2139C75.9613 69.2139 76.1997 69.1508 76.4105 69.0308L87.9114 62.3852C88.3454 62.1412 88.6167 61.68 88.6167 61.1916V28.1267C88.6167 27.6113 88.3454 27.1504 87.9114 26.906L81.0488 23.0815ZM79.991 56.8247C79.991 56.9603 79.9368 57.0688 79.8281 57.123L75.8952 59.4014C75.8402 59.4282 75.7799 59.4421 75.7188 59.4421C75.6577 59.4421 75.5973 59.4282 75.5424 59.4014L71.6094 57.123C71.5008 57.0688 71.4466 56.9331 71.4466 56.8247V52.2676C71.4466 52.132 71.5008 52.0236 71.6094 51.9694L75.5424 49.6907C75.5973 49.6639 75.6577 49.65 75.7188 49.65C75.7799 49.65 75.8402 49.6639 75.8952 49.6907L79.8281 51.9694C79.9368 52.0233 79.991 52.1592 79.991 52.2676V56.8247ZM119.322 52.1592C119.756 51.9151 120 51.454 120 50.9656V47.7378C120 47.2497 119.729 46.7885 119.322 46.5444L107.902 39.9261C107.692 39.8061 107.453 39.743 107.211 39.743C106.968 39.743 106.73 39.8061 106.519 39.9261L95.0181 46.5714C94.584 46.8155 94.3129 47.2767 94.3129 47.7651V61.029C94.3129 61.5171 94.584 61.9783 95.0181 62.2224L106.438 68.7323C106.872 68.9764 107.387 68.9764 107.794 68.7323L114.711 64.881C114.928 64.7723 115.063 64.5282 115.063 64.2841C115.063 64.0401 114.928 63.796 114.711 63.6873L103.155 57.0418C102.939 56.9063 102.803 56.6893 102.803 56.4452V52.2951C102.803 52.051 102.939 51.8069 103.155 51.6983L106.763 49.6367C106.869 49.5703 106.991 49.535 107.116 49.535C107.241 49.535 107.363 49.5703 107.468 49.6367L111.076 51.6983C111.293 51.8339 111.429 52.0508 111.429 52.2951V55.5501C111.429 55.7941 111.564 56.0382 111.781 56.1466C111.998 56.2823 112.269 56.2823 112.486 56.1466L119.322 52.1592Z" fill="#333333"/>
<path d="M107.034 51.5352C107.074 51.5088 107.122 51.4946 107.17 51.4946C107.218 51.4946 107.265 51.5088 107.305 51.5352L109.503 52.8101C109.584 52.8641 109.638 52.9455 109.638 53.0542V55.6039C109.638 55.7123 109.584 55.7937 109.503 55.848L107.305 57.1228C107.265 57.1493 107.218 57.1634 107.17 57.1634C107.122 57.1634 107.074 57.1493 107.034 57.1228L104.837 55.848C104.756 55.7937 104.701 55.7123 104.701 55.6039V53.0542C104.701 52.9455 104.756 52.8641 104.837 52.8101L107.034 51.5352Z" fill="#539E43"/>
<path d="M44.9998 39.9799C44.789 39.86 44.5507 39.7969 44.3081 39.7969C44.0656 39.7969 43.8273 39.86 43.6165 39.9799L32.1971 46.5708C31.7629 46.8149 31.5188 47.2761 31.5188 47.7642V60.9741C31.5188 61.4623 31.7901 61.9235 32.1971 62.1676L43.6165 68.7589C43.8273 68.8789 44.0656 68.942 44.3081 68.942C44.5507 68.942 44.789 68.8789 44.9998 68.7589L56.4195 62.1676C56.8534 61.9235 57.0977 61.4623 57.0977 60.9741V47.7645C57.0977 47.2763 56.8262 46.8151 56.4195 46.5711L44.9998 39.9799Z" fill="url(#paint0_linear_2149_277)"/>
<mask id="mask0_2149_277" style="mask-type:luminance" maskUnits="userSpaceOnUse" x="31" y="39" width="27" height="30">
<path d="M44.9998 39.9799C44.789 39.86 44.5507 39.7969 44.3081 39.7969C44.0656 39.7969 43.8273 39.86 43.6165 39.9799L32.1971 46.5708C31.7629 46.8149 31.5188 47.2761 31.5188 47.7642V60.9741C31.5188 61.4623 31.7901 61.9235 32.1971 62.1676L43.6165 68.7589C43.8273 68.8789 44.0656 68.942 44.3081 68.942C44.5507 68.942 44.789 68.8789 44.9998 68.7589L56.4195 62.1676C56.8534 61.9235 57.0977 61.4623 57.0977 60.9741V47.7645C57.0977 47.2763 56.8262 46.8151 56.4195 46.5711L44.9998 39.9799Z" fill="white"/>
</mask>
<g mask="url(#mask0_2149_277)">
<path d="M56.4465 46.5715L44.9729 39.9804C44.8601 39.9234 44.7419 39.878 44.6201 39.8447L31.7629 61.8702C31.8694 62.0002 31.9981 62.1104 32.1429 62.1957L43.6166 68.787C43.9421 68.9769 44.3218 69.0311 44.6743 68.9224L56.745 46.843C56.6636 46.7346 56.5549 46.6527 56.4465 46.5715Z" fill="url(#paint1_linear_2149_277)"/>
</g>
<mask id="mask1_2149_277" style="mask-type:luminance" maskUnits="userSpaceOnUse" x="31" y="39" width="27" height="30">
<path d="M44.9998 39.9799C44.789 39.86 44.5507 39.7969 44.3081 39.7969C44.0656 39.7969 43.8273 39.86 43.6165 39.9799L32.1971 46.5708C31.7629 46.8149 31.5188 47.2761 31.5188 47.7642V60.9741C31.5188 61.4623 31.7901 61.9235 32.1971 62.1676L43.6165 68.7589C43.8273 68.8789 44.0656 68.942 44.3081 68.942C44.5507 68.942 44.789 68.8789 44.9998 68.7589L56.4195 62.1676C56.8534 61.9235 57.0977 61.4623 57.0977 60.9741V47.7645C57.0977 47.2763 56.8262 46.8151 56.4195 46.5711L44.9998 39.9799Z" fill="white"/>
</mask>
<g mask="url(#mask1_2149_277)">
<path fill-rule="evenodd" clip-rule="evenodd" d="M56.4739 62.1684C56.7994 61.9785 57.0435 61.653 57.1521 61.3005L44.5658 39.8177C44.2403 39.7634 43.8875 39.7904 43.5895 39.9803L32.197 46.5447L44.4844 68.9496C44.6631 68.9203 44.8366 68.8656 44.9997 68.7869L56.4736 62.1686L56.4739 62.1684Z" fill="url(#paint2_linear_2149_277)"/>
<path fill-rule="evenodd" clip-rule="evenodd" d="M56.4738 62.1681L45.0271 68.7594C44.8655 68.8418 44.6913 68.8968 44.5117 68.9221L44.7288 69.329L57.4231 61.9784V61.8156L57.0976 61.2729C57.0434 61.6527 56.7993 61.9782 56.4738 62.1681Z" fill="url(#paint3_linear_2149_277)"/>
<path fill-rule="evenodd" clip-rule="evenodd" d="M56.4738 62.1681L45.0271 68.7594C44.8655 68.8418 44.6913 68.8968 44.5117 68.9221L44.7288 69.329L57.4231 61.9784V61.8156L57.0976 61.2729C57.0434 61.6527 56.7993 61.9782 56.4738 62.1681Z" fill="url(#paint4_linear_2149_277)"/>
</g>
</g>
<defs>
<linearGradient id="paint0_linear_2149_277" x1="1775.69" y1="549.457" x2="524.012" y2="2516.22" gradientUnits="userSpaceOnUse">
<stop stop-color="#41873F"/>
<stop offset="0.3288" stop-color="#418B3D"/>
<stop offset="0.6352" stop-color="#419637"/>
<stop offset="0.9319" stop-color="#3FA92D"/>
<stop offset="1" stop-color="#3FAE2A"/>
</linearGradient>
<linearGradient id="paint1_linear_2149_277" x1="1112.91" y1="1647.09" x2="4247.69" y2="-56.0454" gradientUnits="userSpaceOnUse">
<stop offset="0.1376" stop-color="#41873F"/>
<stop offset="0.4032" stop-color="#54A044"/>
<stop offset="0.7136" stop-color="#66B848"/>
<stop offset="0.9081" stop-color="#6CC04A"/>
</linearGradient>
<linearGradient id="paint2_linear_2149_277" x1="-77.3309" y1="1497.54" x2="2565.12" y2="1497.54" gradientUnits="userSpaceOnUse">
<stop offset="0.09192" stop-color="#6CC04A"/>
<stop offset="0.2864" stop-color="#66B848"/>
<stop offset="0.5968" stop-color="#54A044"/>
<stop offset="0.8624" stop-color="#41873F"/>
</linearGradient>
<linearGradient id="paint3_linear_2149_277" x1="-1296.48" y1="466.291" x2="1345.94" y2="466.291" gradientUnits="userSpaceOnUse">
<stop offset="0.09192" stop-color="#6CC04A"/>
<stop offset="0.2864" stop-color="#66B848"/>
<stop offset="0.5968" stop-color="#54A044"/>
<stop offset="0.8624" stop-color="#41873F"/>
</linearGradient>
<linearGradient id="paint4_linear_2149_277" x1="1730.91" y1="-1639.11" x2="1061.48" y2="1868.67" gradientUnits="userSpaceOnUse">
<stop stop-color="#41873F"/>
<stop offset="0.3288" stop-color="#418B3D"/>
<stop offset="0.6352" stop-color="#419637"/>
<stop offset="0.9319" stop-color="#3FA92D"/>
<stop offset="1" stop-color="#3FAE2A"/>
</linearGradient>
<clipPath id="clip0_2149_277">
<rect width="120" height="120" fill="white"/>
</clipPath>
</defs>
</svg>
