<svg width="120" height="120" viewBox="0 0 120 120" fill="none" xmlns="http://www.w3.org/2000/svg">
<g clip-path="url(#clip0_2143_228)">
<path d="M96.9055 42.7027C95.703 42.2886 94.4903 41.905 93.2686 41.5522C93.4738 40.7106 93.6627 39.8791 93.8304 39.0622C96.5837 25.6483 94.7838 14.8417 88.6359 11.2837C82.7415 7.87272 73.1015 11.4294 63.3658 19.9334C62.4063 20.773 61.4681 21.6368 60.552 22.5239C59.9388 21.934 59.3148 21.3555 58.6802 20.7888C48.4766 11.6961 38.2492 7.86386 32.108 11.4321C26.2188 14.8537 24.4749 25.0126 26.9537 37.7253C27.2003 38.9844 27.4787 40.2369 27.7887 41.4818C26.341 41.8947 24.9441 42.3341 23.6072 42.8019C11.6443 46.9881 4.00464 53.5482 4.00464 60.3528C4.00464 67.3808 12.2062 74.4299 24.666 78.7043C25.6762 79.0494 26.6947 79.3692 27.7208 79.6633C27.3875 81.0041 27.0917 82.354 26.8336 83.7113C24.4705 96.2034 26.3159 106.122 32.1892 109.522C38.2554 113.033 48.4369 109.425 58.3505 100.727C59.1544 100.02 59.9406 99.2924 60.7083 98.5459C61.7003 99.5065 62.7188 100.439 63.7626 101.343C73.3659 109.636 82.85 112.985 88.7176 109.576C94.7781 106.055 96.7479 95.3994 94.1906 82.4355C93.9891 81.4199 93.7632 80.4093 93.5131 79.4046C94.2281 79.192 94.9299 78.9732 95.614 78.7455C108.567 74.4384 116.995 67.4747 116.995 60.3528C116.995 53.5234 109.109 46.919 96.9055 42.7027ZM94.0961 74.1473C93.4782 74.3524 92.8444 74.5504 92.1982 74.7431C90.7682 70.1995 88.8385 65.3683 86.4768 60.3763C88.7304 55.5035 90.5859 50.7339 91.9758 46.2199C93.1317 46.5557 94.2533 46.9097 95.3346 47.2831C105.791 50.8961 112.168 56.2371 112.168 60.3528C112.168 64.7366 105.28 70.4276 94.0961 74.1473ZM89.4556 83.3764C90.5864 89.1086 90.7475 94.2915 89.9985 98.3435C89.3258 101.984 87.9726 104.411 86.2989 105.384C82.7384 107.453 75.1234 104.764 66.9109 97.6706C65.94 96.8304 64.9926 95.9633 64.0698 95.0703C67.2538 91.5756 70.4356 87.513 73.5411 83.0008C79.0035 82.5144 84.164 81.7188 88.8438 80.633C89.0693 81.5425 89.2732 82.4572 89.4556 83.3764ZM42.5256 105.026C39.0467 106.259 36.2758 106.295 34.6008 105.325C31.0368 103.262 29.5551 95.298 31.5761 84.615C31.8164 83.3526 32.0914 82.0972 32.401 80.8501C37.0292 81.8778 42.1522 82.6167 47.6274 83.0623C50.7541 87.4776 54.0277 91.5357 57.327 95.0893C56.6258 95.7702 55.9081 96.4337 55.1744 97.0792C50.7903 100.925 46.3973 103.654 42.5256 105.026ZM26.2276 74.1203C20.718 72.2301 16.1679 69.7738 13.0492 67.0933C10.2465 64.6848 8.8319 62.2931 8.8319 60.3528C8.8319 56.2234 14.9656 50.9563 25.1961 47.3766C26.4377 46.9424 27.7371 46.5327 29.0855 46.1482C30.4996 50.764 32.3543 55.5903 34.5924 60.4707C32.3251 65.4232 30.444 70.3266 29.0162 74.997C28.0796 74.7277 27.1498 74.4354 26.2276 74.1203ZM31.6909 36.7946C29.5674 25.903 30.9776 17.687 34.5267 15.6249C38.3066 13.4286 46.6652 16.56 55.4754 24.4115C56.0499 24.9246 56.6151 25.4482 57.1707 25.9818C53.8878 29.5199 50.6442 33.548 47.5453 37.9371C42.2312 38.4314 37.1444 39.2252 32.4677 40.2888C32.1795 39.131 31.9205 37.966 31.6909 36.795V36.7946ZM80.43 48.8738C79.3254 46.9588 78.1797 45.0679 76.9939 43.2023C80.599 43.6599 84.0532 44.2673 87.2968 45.0097C86.3232 48.1425 85.1094 51.4175 83.6807 54.7753C82.6364 52.7866 81.5526 50.8191 80.43 48.8738ZM60.5542 29.4442C62.7805 31.8651 65.0103 34.5677 67.2035 37.5003C62.7545 37.2894 58.298 37.2885 53.849 37.4976C56.0443 34.5921 58.2931 31.893 60.5542 29.4442ZM40.5509 48.9071C39.4424 50.8366 38.3788 52.7919 37.3612 54.7713C35.9558 51.4254 34.7531 48.1354 33.7711 44.9583C36.9948 44.2345 40.4326 43.6427 44.0148 43.1935C42.8158 45.0704 41.6608 46.9753 40.5509 48.9066V48.9071ZM44.1176 77.8569C40.4168 77.4422 36.9273 76.881 33.7044 76.1766C34.7019 72.9429 35.9311 69.5828 37.3669 66.1652C38.3886 68.1461 39.4566 70.1025 40.5699 72.033C41.7148 74.0175 42.9003 75.9613 44.1176 77.8569ZM60.6875 91.6026C58.3995 89.1255 56.1176 86.3847 53.8891 83.4371C56.0527 83.5222 58.2582 83.5656 60.5 83.5656C62.803 83.5656 65.0796 83.5137 67.3204 83.4136C65.1202 86.4144 62.8988 89.1591 60.6875 91.6026ZM83.7262 65.9907C85.2365 69.4459 86.5094 72.7883 87.5202 75.9667C84.2443 76.7171 80.7072 77.3213 76.9803 77.77C78.1745 75.8699 79.331 73.9461 80.449 71.9998C81.5857 70.0214 82.6783 68.0179 83.7262 65.9907ZM76.2679 69.5793C74.5563 72.5634 72.7486 75.4908 70.8474 78.357C67.4037 78.6018 63.9523 78.7234 60.5 78.7216C56.9836 78.7216 53.5634 78.6117 50.2699 78.3973C48.3191 75.5378 46.4769 72.6052 44.747 69.6059H44.7475C43.0258 66.6224 41.4176 63.5744 39.9264 60.4685C41.4138 57.3618 43.0171 54.3124 44.7329 51.3266L44.7325 51.3271C46.4476 48.3406 48.2752 45.4206 50.2112 42.5733C53.5713 42.3181 57.0171 42.1853 60.4995 42.1853H60.5C63.9983 42.1853 67.4484 42.3195 70.8077 42.5764C72.7242 45.4194 74.5401 48.3294 76.252 51.3009C77.9735 54.2801 79.598 57.3146 81.123 60.3998C79.6137 63.5165 77.9943 66.5783 76.2679 69.5793ZM86.2252 15.4805C90.0086 17.6706 91.4801 26.5023 89.1029 38.0841C88.9511 38.823 88.7807 39.5756 88.5953 40.3389C83.9071 39.2527 78.8168 38.4452 73.4873 37.9433C70.3827 33.5059 67.1655 29.4717 63.936 25.9792C64.7824 25.1603 65.6489 24.3627 66.5348 23.5871C74.8767 16.3013 82.673 13.4246 86.2252 15.4805ZM60.5 50.2263C66.0723 50.2263 70.5897 54.7602 70.5897 60.3528C70.5897 65.9455 66.0723 70.4794 60.5 70.4794C54.9277 70.4794 50.4102 65.9455 50.4102 60.3528C50.4102 54.7602 54.9277 50.2263 60.5 50.2263Z" fill="#00D8FF"/>
</g>
<defs>
<clipPath id="clip0_2143_228">
<rect width="113" height="101" fill="white" transform="translate(4 10)"/>
</clipPath>
</defs>
</svg>
