<svg width="120" height="120" viewBox="0 0 120 120" fill="none" xmlns="http://www.w3.org/2000/svg">
<g clip-path="url(#clip0_2143_235)">
<path d="M102.673 67.0765C98.603 67.0973 95.0653 68.0693 92.1035 69.5061C91.0162 67.3719 89.9295 65.4706 89.738 64.0759C89.5246 62.4491 89.2691 61.4559 89.5246 59.512C89.7805 57.5681 90.9312 54.7999 90.9098 54.5888C90.8887 54.3776 90.6538 53.3844 88.3098 53.3635C85.9658 53.3422 83.9413 53.8071 83.7068 54.4198C83.4724 55.0324 83.025 56.4271 82.7266 57.8635C82.3216 59.9769 78.0386 67.5196 75.5881 71.4709C74.7993 69.9289 74.1174 68.5763 73.968 67.4988C73.755 65.8721 73.4991 64.8788 73.755 62.9349C74.0109 60.991 75.1617 58.2233 75.1402 58.0117C75.1187 57.8005 74.8843 56.8073 72.5403 56.7864C70.1958 56.7651 68.1713 57.2301 67.9373 57.8427C67.7029 58.4558 67.4469 59.8922 66.957 61.2869C66.4667 62.6816 60.7769 75.2748 59.2852 78.5283C58.6824 79.8451 58.0501 81.1485 57.3886 82.4374C57.3886 82.4374 57.3672 82.5008 57.3032 82.6064C57.0954 83.0106 56.8824 83.4121 56.6643 83.8108V83.8317C56.3444 84.4026 56.0035 84.9305 55.833 84.9305C55.705 84.9305 55.4706 83.4093 55.8755 81.3386C56.7278 76.965 58.7524 70.1613 58.7313 69.9289C58.7313 69.802 59.1148 68.6189 57.4101 68.0058C55.7475 67.3932 55.1511 68.4073 55.0017 68.4073C54.8527 68.4073 54.7458 68.7666 54.7458 68.7666C54.7458 68.7666 56.6003 61.1179 51.2085 61.1179C47.8417 61.1179 43.1958 64.7732 40.8943 68.0693C38.278 69.4809 35.6639 70.8966 33.052 72.3164C31.7953 73.0138 30.4951 73.7111 29.2803 74.3659C29.1949 74.2816 29.1099 74.1756 29.0244 74.0913C22.5034 67.182 10.442 62.301 10.9534 53.0255C11.1453 49.6447 12.3171 40.7703 34.1178 29.9945C52.0608 21.2256 66.3392 23.6553 68.8111 29.0434C72.3484 36.7348 61.1608 51.0182 42.6204 53.0885C35.5455 53.8706 31.8373 51.1659 30.9 50.1518C29.9197 49.0951 29.7703 49.0317 29.4079 49.2433C28.8115 49.5605 29.1949 50.5111 29.4079 51.0603C29.9622 52.4967 32.2422 55.0324 36.0994 56.2794C39.5091 57.3778 47.7988 57.9908 57.8361 54.1452C69.0666 49.8346 77.8466 37.8544 75.2682 27.8182C72.6893 17.6337 55.641 14.2743 39.5091 19.9578C29.9197 23.339 19.52 28.6632 12.0402 35.5938C3.15363 43.8339 1.74696 50.9969 2.32233 53.9975C4.38984 64.6464 19.2006 71.5769 25.1248 76.7112C24.8263 76.8803 24.5489 77.0284 24.3149 77.1553C21.3526 78.613 10.0581 84.4656 7.24523 90.6566C4.04891 97.6714 7.75708 102.701 10.2076 103.376C17.8154 105.468 25.6362 101.707 29.8342 95.4951C34.0323 89.2832 33.5209 81.2117 31.5818 77.5142C31.5604 77.472 31.5393 77.4295 31.4964 77.3873C32.2637 76.9437 33.052 76.4788 33.8194 76.0352C35.2296 75.2086 36.6578 74.4124 38.1029 73.6472C37.3781 75.6124 36.8452 77.9578 36.5897 81.3386C36.2698 85.3111 37.9105 90.4663 40.063 92.4945C41.0223 93.3826 42.1515 93.4035 42.8763 93.4035C45.3908 93.4035 46.5205 91.3327 47.7778 88.8817C49.3119 85.8816 50.6971 82.3952 50.6971 82.3952C50.6971 82.3952 48.971 91.8189 53.6595 91.8189C55.3641 91.8189 57.0902 89.6212 57.8575 88.5016V88.5224C57.8575 88.5224 57.9 88.459 57.9855 88.3112C58.156 88.0367 58.2624 87.8672 58.2624 87.8672V87.8255C58.9443 86.6419 60.4789 83.9585 62.7589 79.5002C65.6998 73.7533 68.5342 66.5694 68.5342 66.5694C68.5342 66.5694 68.7901 68.323 69.6634 71.2389C70.1753 72.9503 71.2401 74.8308 72.0929 76.6478C71.411 77.5989 70.9846 78.1268 70.9846 78.1268L71.0061 78.1481C70.4518 78.8663 69.8554 79.648 69.1945 80.4092C66.8716 83.1556 64.1016 86.3044 63.7178 87.2124C63.2699 88.29 63.3768 89.072 64.2296 89.706C64.8475 90.1709 65.9553 90.2339 67.085 90.1709C69.1735 90.0227 70.6437 89.5157 71.3681 89.1989C72.4978 88.7975 73.819 88.1844 75.0548 87.2759C77.3352 85.6065 78.72 83.219 78.5925 80.0712C78.5285 78.3384 77.9531 76.6057 77.2498 74.9785C77.4632 74.6831 77.6547 74.3872 77.8681 74.0913C81.4693 68.8722 84.2612 63.146 84.2612 63.146C84.2612 63.146 84.5171 64.8996 85.3905 67.816C85.8168 69.295 86.6907 70.9008 87.4575 72.4641C84.0693 75.1901 81.9807 78.3593 81.2349 80.43C79.8926 84.2757 80.9365 86.008 82.9185 86.4095C83.8133 86.5998 85.092 86.177 86.0298 85.7756C87.2231 85.3954 88.6297 84.7406 89.9724 83.7682C92.2529 82.0994 94.4474 79.7748 94.3195 76.627C94.2555 75.1901 93.8721 73.7741 93.3392 72.4007C96.2161 71.218 99.9242 70.5628 104.655 71.112C114.799 72.2951 116.802 78.5704 116.418 81.2121C116.035 83.853 113.904 85.2898 113.201 85.7334C112.497 86.1775 112.263 86.3252 112.327 86.6419C112.412 87.1068 112.753 87.086 113.35 87.0013C114.181 86.8535 118.678 84.867 118.869 80.0073C119.189 73.7954 113.222 67.013 102.673 67.0765ZM24.4214 93.2345C21.0542 96.8685 16.3662 98.2419 14.3417 97.0801C12.1681 95.8331 13.0204 90.4663 17.1545 86.6211C19.669 84.2757 22.9083 82.0989 25.0608 80.7681C25.5507 80.4722 26.2755 80.0499 27.1493 79.5215C27.2983 79.4368 27.3838 79.3947 27.3838 79.3947L27.8952 79.0775C29.4078 84.5712 27.9591 89.4101 24.4214 93.2345ZM48.9285 76.7112C47.7563 79.5428 45.3058 86.7901 43.8141 86.3886C42.5354 86.0506 41.7466 80.5569 43.5582 75.1267C44.4745 72.4007 46.4136 69.1468 47.5433 67.8794C49.3759 65.8508 51.4005 65.1742 51.8904 65.9989C52.5087 67.0765 49.6529 74.9364 48.9285 76.7112ZM69.152 86.3039C68.6617 86.5577 68.1932 86.7267 67.9798 86.5998C67.8308 86.5151 68.1932 86.177 68.1932 86.177C68.1932 86.177 70.7292 83.4728 71.7305 82.2471C72.3063 81.5289 72.9877 80.6838 73.7125 79.7327V80.0073C73.7125 83.2403 70.5583 85.4167 69.1516 86.3039H69.152ZM84.7511 82.7754C84.3887 82.5217 84.4527 81.6766 85.6674 79.0353C86.1363 77.9999 87.2441 76.2676 89.1411 74.5983C89.3541 75.2744 89.5035 75.9296 89.4821 76.5422C89.4606 80.6204 86.5202 82.1415 84.7511 82.7754Z" fill="#CD6799"/>
</g>
<defs>
<clipPath id="clip0_2143_235">
<rect width="117" height="87" fill="white" transform="translate(2 17)"/>
</clipPath>
</defs>
</svg>
