<svg width="120" height="120" viewBox="0 0 120 120" fill="none" xmlns="http://www.w3.org/2000/svg">
<path d="M31.6562 48.925C35.4771 33.6417 45.0292 26 60.3125 26C83.2375 26 86.1031 43.1937 97.5656 46.0594C105.207 47.9698 111.894 45.1042 117.625 37.4625C113.804 52.7458 104.252 60.3875 88.9688 60.3875C66.0438 60.3875 63.1781 43.1938 51.7156 40.3281C44.074 38.4177 37.3875 41.2833 31.6562 48.925ZM3 83.3125C6.82083 68.0292 16.3729 60.3875 31.6562 60.3875C54.5812 60.3875 57.4469 77.5812 68.9094 80.4469C76.551 82.3573 83.2375 79.4917 88.9688 71.85C85.1479 87.1333 75.5958 94.775 60.3125 94.775C37.3875 94.775 34.5219 77.5812 23.0594 74.7156C15.4177 72.8052 8.73125 75.6708 3 83.3125Z" fill="#44A8B3"/>
</svg>
