<svg width="120" height="120" viewBox="0 0 120 120" fill="none" xmlns="http://www.w3.org/2000/svg">
<g clip-path="url(#clip0_2211_228)">
<g clip-path="url(#clip1_2211_228)">
<path d="M0 60V0H120V120H0" fill="#007ACC"/>
<path d="M26.3101 60.21V65.1H41.9101V109.5H52.9801V65.1H68.5801V60.3C68.5801 57.6 68.5801 55.41 68.4601 55.35C68.4601 55.26 58.9501 55.23 47.4001 55.23L26.4001 55.32V60.24L26.3101 60.21ZM96.4201 55.2C99.4801 55.92 101.82 57.3 103.92 59.49C105.03 60.69 106.68 62.79 106.8 63.33C106.8 63.51 101.61 67.02 98.4601 68.97C98.3401 69.06 97.8601 68.55 97.3801 67.77C95.8201 65.55 94.2301 64.59 91.7401 64.41C88.1401 64.17 85.7401 66.06 85.7401 69.21C85.7401 70.17 85.9201 70.71 86.2801 71.49C87.0901 73.14 88.5901 74.13 93.2401 76.17C101.82 79.86 105.54 82.29 107.79 85.77C110.34 89.67 110.91 95.79 109.2 100.38C107.28 105.39 102.6 108.78 95.9101 109.89C93.8101 110.25 89.0101 110.19 86.7601 109.8C81.9601 108.9 77.3701 106.5 74.5501 103.41C73.4401 102.21 71.3101 99 71.4301 98.79L72.5701 98.07L77.0701 95.46L80.4601 93.48L81.2401 94.53C82.2301 96.09 84.4501 98.19 85.7401 98.91C89.6401 100.92 94.8601 100.65 97.4401 98.31C98.5501 97.29 99.0301 96.21 99.0301 94.71C99.0301 93.33 98.8201 92.7 98.1301 91.65C97.1701 90.33 95.2501 89.25 89.8501 86.85C83.6401 84.21 81.0001 82.53 78.5401 79.95C77.1301 78.39 75.8401 75.96 75.2401 73.95C74.7901 72.21 74.6401 67.95 75.0601 66.24C76.3501 60.24 80.8801 56.04 87.3601 54.84C89.4601 54.42 94.4101 54.6 96.4801 55.14L96.4201 55.2Z" fill="white"/>
</g>
</g>
<defs>
<clipPath id="clip0_2211_228">
<rect width="120" height="120" fill="white"/>
</clipPath>
<clipPath id="clip1_2211_228">
<rect width="120" height="120" fill="white"/>
</clipPath>
</defs>
</svg>
