<svg width="120" height="120" viewBox="0 0 120 120" fill="none" xmlns="http://www.w3.org/2000/svg">
<path d="M105.535 21.6052L85.354 11.8892C84.2143 11.3397 82.9319 11.1584 81.6845 11.3704C80.4372 11.5823 79.2867 12.1771 78.3925 13.0722L12.33 73.3002C11.5284 74.0275 11.0487 75.0435 10.9961 76.1245C10.9436 77.2056 11.3227 78.2632 12.05 79.0647C12.1375 79.1592 12.225 79.2502 12.3195 79.3342L17.713 84.2342C18.4178 84.8757 19.3249 85.25 20.277 85.2922C21.229 85.3344 22.1657 85.0418 22.9245 84.4652L102.497 24.1252C103.098 23.6692 103.814 23.3899 104.566 23.3189C105.317 23.2479 106.073 23.388 106.749 23.7233C107.424 24.0587 107.993 24.5761 108.391 25.2172C108.789 25.8583 109 26.5977 109 27.3522V27.1177C109 25.9659 108.675 24.8375 108.062 23.8623C107.449 22.8871 106.573 22.1047 105.535 21.6052Z" fill="#0065A9"/>
<path d="M105.535 98.395L85.354 108.115C84.214 108.662 82.9319 108.843 81.6849 108.631C80.4379 108.419 79.2875 107.825 78.3925 106.932L12.33 46.7C11.5284 45.9727 11.0487 44.9568 10.9961 43.8758C10.9436 42.7947 11.3227 41.7371 12.05 40.9355C12.1375 40.841 12.225 40.75 12.3195 40.666L17.713 35.766C18.4185 35.1219 19.3277 34.7459 20.2821 34.7037C21.2365 34.6615 22.1754 34.9557 22.935 35.535L102.497 95.875C103.098 96.3311 103.814 96.6104 104.566 96.6814C105.317 96.7524 106.073 96.6123 106.749 96.2769C107.424 95.9415 107.993 95.4242 108.391 94.783C108.789 94.1419 109 93.4025 109 92.648V92.9C108.996 94.0488 108.669 95.1733 108.057 96.1451C107.444 97.1168 106.57 97.8965 105.535 98.395Z" fill="#007ACC"/>
<path d="M85.3539 108.115C84.2139 108.663 82.9319 108.843 81.6849 108.631C80.4379 108.419 79.2874 107.825 78.3924 106.932C78.895 107.428 79.5329 107.764 80.226 107.9C80.9192 108.035 81.6368 107.962 82.2889 107.691C82.941 107.42 83.4987 106.963 83.892 106.376C84.2853 105.79 84.4968 105.1 84.4999 104.394V15.6062C84.5005 14.8967 84.2905 14.203 83.8965 13.6129C83.5025 13.0229 82.9423 12.5631 82.2867 12.2917C81.6312 12.0203 80.9098 11.9496 80.2141 12.0886C79.5183 12.2275 78.8795 12.5698 78.3784 13.0722C79.2728 12.1774 80.423 11.5825 81.6702 11.37C82.9173 11.1574 84.1997 11.3376 85.3399 11.8857L105.517 21.5877C106.559 22.0847 107.438 22.8659 108.054 23.8413C108.67 24.8167 108.998 25.9464 109 27.1002V92.9002C109 94.053 108.675 95.1824 108.061 96.1583C107.447 97.1342 106.571 97.9169 105.531 98.4162L85.3539 108.115Z" fill="#1F9CF0"/>
</svg>
