<svg width="120" height="120" viewBox="0 0 120 120" fill="none" xmlns="http://www.w3.org/2000/svg">
<g clip-path="url(#clip0_2167_274)">
<path d="M92.291 11H27.709C17.9286 11 10 18.9286 10 28.709V90.7912C10 100.572 17.9286 108.5 27.709 108.5H92.291C102.071 108.5 110 100.572 110 90.7912V28.709C110 18.9286 102.071 11 92.291 11Z" fill="#470137"/>
<path d="M62.5691 36.6413L50.0918 57.2346L63.4414 79.104C63.5272 79.2571 63.551 79.4374 63.5078 79.6075C63.4629 79.7636 63.3126 79.666 63.0394 79.709H53.5165C52.8453 79.709 52.3769 79.6855 52.1076 79.2387C51.2139 77.4941 50.3195 75.7612 49.4244 74.0401C48.5294 72.319 47.579 70.5627 46.5734 68.7713C45.5691 66.9838 44.5745 65.1723 43.5897 63.3366H43.5214C42.6264 65.1267 41.6981 66.9162 40.7368 68.705C39.7754 70.4937 38.825 72.2715 37.8857 74.0382C36.9465 75.8035 35.9851 77.5598 35.0016 79.307C34.822 79.709 34.5098 79.7519 34.0629 79.7519H24.8679C24.6903 79.7519 24.5908 79.8221 24.5674 79.6426C24.5419 79.4789 24.5773 79.3116 24.6669 79.1723L37.6145 57.9019L25.0025 36.573C24.8679 36.3955 24.8464 36.2491 24.9362 36.1379C24.986 36.0816 25.0483 36.0378 25.1181 36.01C25.188 35.9822 25.2633 35.9712 25.3382 35.9779H34.7967C35.0031 35.9668 35.2096 36.0008 35.4016 36.0774C35.5615 36.1695 35.6989 36.2962 35.8036 36.4481C36.6076 38.2356 37.502 40.0244 38.4868 41.8145C39.4716 43.6046 40.4668 45.3667 41.4724 47.1009C42.4768 48.8455 43.4043 50.6121 44.2551 52.4009H44.3234C45.2172 50.5679 46.1226 48.7791 47.0398 47.0345C47.957 45.29 48.8963 43.5337 49.8576 41.7657C50.8177 39.9991 51.7453 38.2428 52.6404 36.4969C52.6926 36.3312 52.7851 36.181 52.9097 36.0598C53.0752 35.9756 53.2616 35.9411 53.4463 35.9603H62.2276C62.311 35.9447 62.3972 35.9566 62.4731 35.9943C62.5491 36.0321 62.6107 36.0935 62.6486 36.1694C62.6865 36.2452 62.6987 36.3314 62.6833 36.4148C62.6679 36.4982 62.6258 36.5743 62.5633 36.6316L62.5691 36.6413Z" fill="#FF61F6"/>
<path d="M81.8217 80.5794C78.7337 80.6267 75.6739 79.9854 72.8647 78.7021C70.2485 77.4902 68.0611 75.5137 66.591 73.0333C65.0715 70.5069 64.3111 67.343 64.3098 63.5416C64.2879 60.4653 65.0746 57.4371 66.591 54.7603C68.1544 52.0337 70.4537 49.8021 73.2258 48.3206C76.1308 46.7114 79.6433 45.9068 83.7634 45.9068C83.9858 45.9068 84.2766 45.9068 84.6357 45.9399C84.9947 45.9731 85.4162 45.9965 85.9099 46.0394V32.8167C85.9099 32.5045 86.0446 32.3484 86.3119 32.3484H94.7635C94.8568 32.3349 94.9517 32.359 95.0274 32.4153C95.1031 32.4716 95.1534 32.5556 95.1674 32.6489C95.1713 32.6826 95.1713 32.7166 95.1674 32.7503V72.3952C95.1674 73.1562 95.2006 73.9836 95.2669 74.8774C95.3333 75.7711 95.3892 76.5764 95.4348 77.2932C95.4429 77.4326 95.409 77.5711 95.3373 77.6908C95.2656 77.8106 95.1594 77.906 95.0328 77.9645C92.8521 78.8735 90.5809 79.548 88.2575 79.9764C86.1344 80.368 83.9806 80.5698 81.8217 80.5794ZM85.9197 72.2625V53.9485C85.5572 53.8516 85.187 53.7863 84.8132 53.7534C84.3561 53.7073 83.8969 53.6845 83.4375 53.6851C81.8093 53.6692 80.2002 54.0368 78.7404 54.7583C77.3221 55.4659 76.1117 56.5297 75.2279 57.8455C74.3107 59.1867 73.8522 60.9528 73.8522 63.1436C73.8194 64.6058 74.0582 66.0615 74.5566 67.4367C74.9622 68.5447 75.6026 69.5518 76.4339 70.3891C77.2312 71.1583 78.1956 71.7327 79.2517 72.0674C80.368 72.4279 81.5346 72.6084 82.7077 72.602C83.3321 72.602 83.913 72.5799 84.4503 72.5357C84.945 72.4955 85.4342 72.4039 85.9099 72.2625H85.9197Z" fill="#FF61F6"/>
</g>
<defs>
<clipPath id="clip0_2167_274">
<rect width="100" height="97.5002" fill="white" transform="translate(10 11)"/>
</clipPath>
</defs>
</svg>
